<?xml version="1.0" standalone="yes"?><svg xmlns="http://www.w3.org/2000/svg" xmlns:xlink="http://www.w3.org/1999/xlink" version="1.1" preserveAspectRatio="xMidYMid meet" viewBox="594 300 130 76" style="zoom: 1;"><g data-item-type="text" data-item="Business" id="logo__item--business" class="logo__item"></g><g id="logo__item--logo_0" class="logo__item"><g class="logo__item__inner" transform="translate(593.4522392355345 269) scale(0.06404684676584728 0.06404684676584728) rotate(0 0 0)"><g><path fill="none" d="M1890,722.1c-15.7-9.5-40.3-2.8-40.3-2.8S1870.7,717,1890,722.1z"></path><path fill="#C2C4C6" d="M1902.8,748.3c0-13.8-5.4-21.8-12.8-26.2c-19.3-5.1-40.3-2.8-40.3-2.8L966.1,869L961.2,980 c0,0,893.2-154.5,907.7-154.5C1883.5,825.5,1902.8,791.7,1902.8,748.3z"></path><path fill="#FFAF3A" d="M906,1032.3l-46.1-8.8v193.1h33.8L906,1032.3z M927.5,1583.6l-11.3-130.1l-16.4-188.6h8.4 c10.7,0,19.3-8.6,19.3-19.3c0-10.7-8.6-19.3-19.3-19.3h-57.9c-10.7,0-19.3,8.6-19.3,19.3c0,10.7,8.6,19.3,19.3,19.3h12.9 L842.4,1451l-16.3,147c0,0-9.7,38.6,53.1,29C941.9,1617.4,927.5,1583.6,927.5,1583.6z"></path><path fill="#4D4D4F" d="M1936.6,757.9 c-4.3,-77.1 -72.4,-82.1 -72.4,-82.1 L941.9,540.7 L72.9,661.4 l-9.7,48.3 L966.1,869 l883.6,-149.7 c0,0 24.6,-6.7 40.3,2.8 c7.4,4.4 12.8,12.3 12.8,26.2 c0,43.5 -19.3,77.3 -33.8,77.3 c-14.5,0 -907.7,154.5 -907.7,154.5 l-21.2,-3.4 l-42.3,-6.9 L68,835.2 l4.8,38.6 l347.5,66.1 L406,1260.1 c0,0 84.5,168.6 436.4,191 l20.7,-186.1 h-12.9 c-10.7,0 -19.3,-8.6 -19.3,-19.3 c0,-10.7 8.6,-19.3 19.3,-19.3 h57.9 c10.7,0 19.3,8.6 19.3,19.3 c0,10.7 -8.6,19.3 -19.3,19.3 h-8.4 l16.4,188.6 c11.6,0 23.3,0 35.5,-0.3 c444.2,-9.7 642.2,-140 647,-178.7 c4.4,-35.2 -21.9,-304.6 -26.6,-352 l296.9,-58.5 C1869,864.2 1941.4,844.9 1936.6,757.9 M893.7,1216.6 h-33.8 v-193.1 l46.1,8.8 L893.7,1216.6 "></path></g></g></g></svg>